{
  "accessors": [
    {
      "bufferView": 2,
      "componentType": 5126,
      "count": 65532,
      "max": [
        9.241484642028809,
        9.152112007141113,
        2.2500851154327393
      ],
      "min": [
        2.595957040786743,
        -1.3195550441741943,
        -11.362072944641113
      ],
      "type": "VEC3"
    },
    {
      "bufferView": 2,
      "byteOffset": 786384,
      "componentType": 5126,
      "count": 65532,
      "max": [
        0.9999983310699463,
        0.9994698166847229,
        0.9995142817497253
      ],
      "min": [
        -0.9999909400939941,
        -0.9999984502792358,
        -0.9999974966049194
      ],
      "type": "VEC3"
    },
    {
      "bufferView": 1,
      "componentType": 5126,
      "count": 65532,
      "max": [
        0.9771400094032288,
        0.9413769841194153
      ],
      "min": [
        0.0,
        0.00020700000459328294
      ],
      "type": "VEC2"
    },
    {
      "bufferView": 0,
      "componentType": 5125,
      "count": 350253,
      "type": "SCALAR"
    },
    {
      "bufferView": 2,
      "byteOffset": 1572768,
      "componentType": 5126,
      "count": 65532,
      "max": [
        8.337997436523438,
        8.95316219329834,
        10.053651809692383
      ],
      "min": [
        1.6258260011672974,
        -1.3195550441741943,
        -7.305706024169922
      ],
      "type": "VEC3"
    },
    {
      "bufferView": 2,
      "byteOffset": 2359152,
      "componentType": 5126,
      "count": 65532,
      "max": [
        0.9999898076057434,
        0.9839802384376526,
        0.9880763292312622
      ],
      "min": [
        -0.9999995827674866,
        -0.9999984502792358,
        -0.9997850656509399
      ],
      "type": "VEC3"
    },
    {
      "bufferView": 1,
      "byteOffset": 524256,
      "componentType": 5126,
      "count": 65532,
      "max": [
        0.8976699709892273,
        0.964838981628418
      ],
      "min": [
        0.0,
        0.014998000115156174
      ],
      "type": "VEC2"
    },
    {
      "bufferView": 0,
      "byteOffset": 1401012,
      "componentType": 5125,
      "count": 328863,
      "type": "SCALAR"
    },
    {
      "bufferView": 2,
      "byteOffset": 3145536,
      "componentType": 5126,
      "count": 65532,
      "max": [
        8.854830741882324,
        9.050300598144531,
        10.862687110900879
      ],
      "min": [
        1.6268939971923828,
        2.6156280040740967,
        -2.867465019226074
      ],
      "type": "VEC3"
    },
    {
      "bufferView": 2,
      "byteOffset": 3931920,
      "componentType": 5126,
      "count": 65532,
      "max": [
        0.9999983906745911,
        0.9649133086204529,
        0.9997478127479553
      ],
      "min": [
        -0.9999997615814209,
        -0.9999998211860657,
        -0.9994240999221802
      ],
      "type": "VEC3"
    },
    {
      "bufferView": 1,
      "byteOffset": 1048512,
      "componentType": 5126,
      "count": 65532,
      "max": [
        0.9681010246276855,
        0.9999359846115112
      ],
      "min": [
        0.002394000068306923,
        0.007247000001370907
      ],
      "type": "VEC2"
    },
    {
      "bufferView": 0,
      "byteOffset": 2716464,
      "componentType": 5125,
      "count": 347100,
      "type": "SCALAR"
    },
    {
      "bufferView": 2,
      "byteOffset": 4718304,
      "componentType": 5126,
      "count": 65532,
      "max": [
        9.241484642028809,
        9.186576843261719,
        10.862687110900879
      ],
      "min": [
        1.6277869939804077,
        2.7122879028320313,
        -11.399957656860352
      ],
      "type": "VEC3"
    },
    {
      "bufferView": 2,
      "byteOffset": 5504688,
      "componentType": 5126,
      "count": 65532,
      "max": [
        0.9999988675117493,
        0.9999963641166687,
        0.903953492641449
      ],
      "min": [
        -0.9999997615814209,
        -0.9999988079071045,
        -0.9999803900718689
      ],
      "type": "VEC3"
    },
    {
      "bufferView": 1,
      "byteOffset": 1572768,
      "componentType": 5126,
      "count": 65532,
      "max": [
        0.9706720113754272,
        0.9997010231018066
      ],
      "min": [
        0.006196000147610903,
        0.008933000266551971
      ],
      "type": "VEC2"
    },
    {
      "bufferView": 0,
      "byteOffset": 4104864,
      "componentType": 5125,
      "count": 324264,
      "type": "SCALAR"
    },
    {
      "bufferView": 2,
      "byteOffset": 6291072,
      "componentType": 5126,
      "count": 65532,
      "max": [
        9.150385856628418,
        9.186528205871582,
        5.317516803741455
      ],
      "min": [
        1.683040976524353,
        1.7305760383605957,
        -11.399909973144531
      ],
      "type": "VEC3"
    },
    {
      "bufferView": 2,
      "byteOffset": 7077456,
      "componentType": 5126,
      "count": 65532,
      "max": [
        0.9999923706054688,
        0.9885486960411072,
        0.9995142817497253
      ],
      "min": [
        -0.9999991655349731,
        -0.9999995231628418,
        -0.9999968409538269
      ],
      "type": "VEC3"
    },
    {
      "bufferView": 1,
      "byteOffset": 2097024,
      "componentType": 5126,
      "count": 65532,
      "max": [
        0.9656090140342712,
        0.9318659901618958
      ],
      "min": [
        0.006593000143766403,
        0.02418999932706356
      ],
      "type": "VEC2"
    },
    {
      "bufferView": 0,
      "byteOffset": 5401920,
      "componentType": 5125,
      "count": 322497,
      "type": "SCALAR"
    },
    {
      "bufferView": 2,
      "byteOffset": 7863840,
      "componentType": 5126,
      "count": 33971,
      "max": [
        7.762205123901367,
        9.186576843261719,
        -0.2584950029850006
      ],
      "min": [
        1.7813349962234497,
        -1.2486499547958374,
        -11.399957656860352
      ],
      "type": "VEC3"
    },
    {
      "bufferView": 2,
      "byteOffset": 8271492,
      "componentType": 5126,
      "count": 33971,
      "max": [
        0.9997708797454834,
        0.9418637752532959,
        0.998362123966217
      ],
      "min": [
        -0.9999973177909851,
        -0.9999994039535522,
        -0.9999997019767761
      ],
      "type": "VEC3"
    },
    {
      "bufferView": 1,
      "byteOffset": 2621280,
      "componentType": 5126,
      "count": 33971,
      "max": [
        0.9696559906005859,
        0.9642419815063477
      ],
      "min": [
        5.700000110664405e-05,
        0.0032289999071508646
      ],
      "type": "VEC2"
    },
    {
      "bufferView": 0,
      "byteOffset": 6691908,
      "componentType": 5125,
      "count": 148803,
      "type": "SCALAR"
    }
  ],
  "asset": {
    "extras": {
      "author": "danderson4 (https://sketchfab.com/danderson4)",
      "license": "CC-BY-NC-4.0 (http://creativecommons.org/licenses/by-nc/4.0/)",
      "source": "https://sketchfab.com/3d-models/sphinx-of-hatshepsut-bf46a8a24521494ea6dadb9b91d10cf3",
      "title": "Sphinx of Hatshepsut"
    },
    "generator": "Sketchfab-12.67.0",
    "version": "2.0"
  },
  "bufferViews": [
    {
      "buffer": 0,
      "byteLength": 7287120,
      "name": "floatBufferViews",
      "target": 34963
    },
    {
      "buffer": 0,
      "byteLength": 2893048,
      "byteOffset": 7287120,
      "byteStride": 8,
      "name": "floatBufferViews",
      "target": 34962
    },
    {
      "buffer": 0,
      "byteLength": 8679144,
      "byteOffset": 10180168,
      "byteStride": 12,
      "name": "floatBufferViews",
      "target": 34962
    }
  ],
  "buffers": [
    {
      "byteLength": 18859312,
      "uri": "scene.bin"
    }
  ],
  "images": [
    {
      "uri": "textures/HatshepsutSphinx_baseColor.jpeg"
    }
  ],
  "materials": [
    {
      "doubleSided": true,
      "name": "HatshepsutSphinx",
      "pbrMetallicRoughness": {
        "baseColorTexture": {
          "index": 0
        },
        "metallicFactor": 0.0,
        "roughnessFactor": 0.6
      }
    }
  ],
  "meshes": [
    {
      "name": "Object_0",
      "primitives": [
        {
          "attributes": {
            "NORMAL": 1,
            "POSITION": 0,
            "TEXCOORD_0": 2
          },
          "indices": 3,
          "material": 0,
          "mode": 4
        }
      ]
    },
    {
      "name": "Object_1",
      "primitives": [
        {
          "attributes": {
            "NORMAL": 5,
            "POSITION": 4,
            "TEXCOORD_0": 6
          },
          "indices": 7,
          "material": 0,
          "mode": 4
        }
      ]
    },
    {
      "name": "Object_2",
      "primitives": [
        {
          "attributes": {
            "NORMAL": 9,
            "POSITION": 8,
            "TEXCOORD_0": 10
          },
          "indices": 11,
          "material": 0,
          "mode": 4
        }
      ]
    },
    {
      "name": "Object_3",
      "primitives": [
        {
          "attributes": {
            "NORMAL": 13,
            "POSITION": 12,
            "TEXCOORD_0": 14
          },
          "indices": 15,
          "material": 0,
          "mode": 4
        }
      ]
    },
    {
      "name": "Object_4",
      "primitives": [
        {
          "attributes": {
            "NORMAL": 17,
            "POSITION": 16,
            "TEXCOORD_0": 18
          },
          "indices": 19,
          "material": 0,
          "mode": 4
        }
      ]
    },
    {
      "name": "Object_5",
      "primitives": [
        {
          "attributes": {
            "NORMAL": 21,
            "POSITION": 20,
            "TEXCOORD_0": 22
          },
          "indices": 23,
          "material": 0,
          "mode": 4
        }
      ]
    }
  ],
  "nodes": [
    {
      "children": [
        1
      ],
      "matrix": [
        1.0,
        0.0,
        0.0,
        0.0,
        0.0,
        -1.0,
        -4.440892098500626e-16,
        0.0,
        0.0,
        4.440892098500626e-16,
        -1.0,
        0.0,
        0.0,
        3.664828300476075,
        -4.202186584472655,
        1.0
      ],
      "name": "Sketchfab_model"
    },
    {
      "children": [
        2,
        3,
        4,
        5,
        6,
        7
      ],
      "name": "HatshepsutSphinx.obj.cleaner.materialmerger.gles"
    },
    {
      "mesh": 0,
      "name": "Object_2"
    },
    {
      "mesh": 1,
      "name": "Object_3"
    },
    {
      "mesh": 2,
      "name": "Object_4"
    },
    {
      "mesh": 3,
      "name": "Object_5"
    },
    {
      "mesh": 4,
      "name": "Object_6"
    },
    {
      "mesh": 5,
      "name": "Object_7"
    }
  ],
  "samplers": [
    {
      "magFilter": 9729,
      "minFilter": 9987,
      "wrapS": 10497,
      "wrapT": 10497
    }
  ],
  "scene": 0,
  "scenes": [
    {
      "name": "Sketchfab_Scene",
      "nodes": [
        0
      ]
    }
  ],
  "textures": [
    {
      "sampler": 0,
      "source": 0
    }
  ]
}
